<svg width="28" height="31" viewBox="0 0 28 31" fill="none" xmlns="http://www.w3.org/2000/svg">
<path d="M18.9597 13.0884L19.7048 11.0798C19.8668 10.6586 19.5428 10.2051 19.0893 10.2051H4.9643C2.69653 10.2051 0.817518 11.8897 0.59074 14.1575L0.00759854 19.5353C-0.057195 20.0537 0.299169 20.5396 0.817518 20.6692C1.40066 20.7988 2.17818 20.896 2.9557 20.9932L3.44166 29.5459C3.47405 30.2587 4.08959 30.8094 4.80232 30.8094H8.91671C9.62944 30.8094 10.2126 30.2587 10.2774 29.5459L10.9901 14.8702C10.9901 14.1251 11.6056 13.5419 12.3184 13.5419H18.3118C18.6357 13.5095 18.8625 13.3476 18.9597 13.0884Z" fill="#F9A000"/>
<path d="M6.90818 9.0063C9.3952 9.0063 11.4113 6.99017 11.4113 4.50315C11.4113 2.01613 9.3952 0 6.90818 0C4.42116 0 2.40503 2.01613 2.40503 4.50315C2.40503 6.99017 4.42116 9.0063 6.90818 9.0063Z" fill="#F9A000"/>
<path d="M25.7823 15.3535H17.1543C15.8925 15.3535 14.9036 16.3766 14.9036 17.6043V28.4831C14.9036 29.7449 15.9266 30.7339 17.1543 30.7339H25.7482C27.01 30.7339 27.999 29.7108 27.999 28.4831V17.6384C28.0331 16.3766 27.01 15.3535 25.7823 15.3535ZM23.2587 26.7779C22.8154 27.2554 22.0992 28.1079 20.8033 28.1079C20.1213 28.1079 19.6097 27.46 19.7803 26.7779L20.8374 22.9584C20.9056 22.7538 20.7351 22.5833 20.5305 22.6174C20.2918 22.6515 20.019 22.7879 19.7121 22.9925C19.5756 23.0948 19.4392 23.0607 19.3369 22.9584C19.2687 22.8561 19.2687 22.7197 19.3369 22.6174C19.7803 22.14 20.4964 21.2874 21.7923 21.2874C22.4744 21.2874 22.9859 21.9353 22.8154 22.6174L21.7582 26.4369C21.69 26.6415 21.8605 26.812 22.0651 26.7779C22.3039 26.7438 22.5767 26.6074 22.8836 26.4028C23.02 26.3005 23.1564 26.3346 23.2587 26.4369C23.361 26.5392 23.361 26.7097 23.2587 26.7779ZM22.4744 20.3325C21.8264 20.3325 21.3149 19.821 21.3149 19.173C21.3149 18.5251 21.8264 18.0135 22.4744 18.0135C23.1223 18.0135 23.6339 18.5251 23.6339 19.173C23.6339 19.821 23.1223 20.3325 22.4744 20.3325Z" fill="#DF0505"/>
</svg>
