<svg width="183" height="218" viewBox="0 0 183 218" fill="none" xmlns="http://www.w3.org/2000/svg">
<g filter="url(#filter0_d)">
<circle cx="91.5" cy="122.5" r="87.5" fill="#E8E8E8"/>
<path d="M111.147 14.7427C111.147 14.7427 118.036 16.2842 115.416 31.507C114.834 40.2745 121.238 75.1519 121.238 75.1519C98.1438 90.76 72.9147 96.0591 49.8203 80.451C55.2543 57.6168 64.1815 39.022 76.505 24.3773L111.147 14.7427Z" fill="#343434"/>
<path d="M10.1318 111.763L26.4337 125.059L74.8543 79.4874C64.3745 69.9491 48.3637 70.3345 39.1454 80.3546L10.1318 111.763Z" fill="#FF4F75"/>
<path d="M169.949 100.491L169.464 101.551C165 111.667 152.58 115.617 142.973 109.933L102.315 85.8463L102.704 82.2815C109.787 71.9724 124.925 69.9492 136.569 77.7532L169.949 100.491Z" fill="#E03C60"/>
<path d="M78.251 73.803C85.2375 79.2947 92.224 79.2947 99.2106 73.803V35.5535H78.251V73.803Z" fill="#FFA6BA"/>
<path d="M99.1139 65.6136C97.8524 65.9989 96.494 66.1916 95.0384 66.1916C87.9549 66.1916 81.7446 61.0853 78.1543 53.4739V35.5535H99.1139V65.6136Z" fill="#FF85A0"/>
<path d="M93.9707 59.3511C104.421 59.3511 112.893 47.8339 112.893 33.6266C112.893 19.4194 104.421 7.9021 93.9707 7.9021C83.5204 7.9021 75.0488 19.4194 75.0488 33.6266C75.0488 47.8339 83.5204 59.3511 93.9707 59.3511Z" fill="#FFA6BA"/>
<path d="M92.2236 51.0652C92.2236 51.0652 98.9191 50.2945 100.181 51.9323" stroke="#FF4F75" stroke-width="0.7219" stroke-miterlimit="10" stroke-linecap="round"/>
<path d="M111.146 14.7427C111.146 14.7427 99.0162 30.1581 78.93 26.2079C76.31 27.5567 74.9515 36.0352 74.9515 36.0352L69.9057 57.5205C69.9057 57.5205 52.2453 34.7827 61.8518 18.7892C71.4582 0.194338 106.003 -10.2111 111.146 14.7427Z" fill="#343434"/>
<path d="M75.2423 39.311C77.7611 39.311 79.803 37.2836 79.803 34.7827C79.803 32.2818 77.7611 30.2544 75.2423 30.2544C72.7235 30.2544 70.6816 32.2818 70.6816 34.7827C70.6816 37.2836 72.7235 39.311 75.2423 39.311Z" fill="#FFA6BA"/>
<path d="M112.018 32.5666C113.085 32.2776 107.457 28.7128 103.576 29.5799C102.897 30.158 102.703 31.0251 102.605 31.9886C106.584 30.7361 109.301 31.6032 112.018 32.5666Z" fill="#343434"/>
<path d="M106.974 37.8657C107.563 37.8657 108.041 36.9167 108.041 35.7461C108.041 34.5754 107.563 33.6265 106.974 33.6265C106.384 33.6265 105.906 34.5754 105.906 35.7461C105.906 36.9167 106.384 37.8657 106.974 37.8657Z" fill="#343434"/>
<path d="M84.6556 32.5668C83.5883 31.8923 91.5451 28.6166 93.5829 29.58C94.5532 30.3508 94.2621 31.1216 93.971 31.9887C90.0896 30.7362 87.3726 31.6033 84.6556 32.5668Z" fill="#343434"/>
<path d="M89.3135 37.8657C89.903 37.8657 90.3809 36.9167 90.3809 35.7461C90.3809 34.5754 89.903 33.6265 89.3135 33.6265C88.724 33.6265 88.2461 34.5754 88.2461 35.7461C88.2461 36.9167 88.724 37.8657 89.3135 37.8657Z" fill="#343434"/>
<path d="M99.1127 37.9622C99.1127 37.9622 98.9186 44.1283 100.277 44.6101C101.636 45.0918 99.6949 48.4639 96.8809 45.6699" stroke="#FF4F75" stroke-width="0.7219" stroke-miterlimit="10" stroke-linecap="round"/>
<path d="M74.7586 36.2279C75.6161 36.2279 76.3112 35.5377 76.3112 34.6863C76.3112 33.8349 75.6161 33.1448 74.7586 33.1448C73.9012 33.1448 73.2061 33.8349 73.2061 34.6863C73.2061 35.5377 73.9012 36.2279 74.7586 36.2279Z" fill="#FF85A0"/>
<path d="M60.3954 73.0322H70.293C74.2714 79.5838 81.549 84.0157 89.797 84.0157C98.045 84.0157 105.323 79.5838 109.301 73.0322H114.929C123.662 73.0322 130.746 80.0655 130.746 88.7367V112.149C130.746 115.425 130.164 118.797 129.096 121.88L115.414 161.286H64.5679L50.8859 121.88C49.8185 118.7 49.2363 115.425 49.2363 112.149V84.1121C49.2363 78.0422 54.2822 73.0322 60.3954 73.0322Z" fill="#FF4F75"/>
<path d="M130.746 104.923C126.089 110.126 131.232 123.71 105.226 117.159C96.493 114.365 82.714 123.71 74.9512 120.242C64.0833 118.026 51.5657 97.986 49.3339 99.6239C48.2665 100.395 43.7059 101.165 40.0186 112.438L49.3339 103.67V112.149C49.3339 115.425 49.9161 118.797 50.9835 121.88L56.5145 137.873C103.285 125.445 104.838 133.827 125.312 133.056L125.798 131.707L129.194 121.784C129.582 120.627 129.97 119.375 130.164 118.219C130.552 116.195 130.843 114.172 130.843 112.053V104.923H130.746Z" fill="#E8486B"/>
<path d="M64.9437 167.037L115.499 167.037L115.499 161.257L64.9437 161.257L64.9437 167.037Z" fill="#333333"/>
<path d="M122.305 185.565L115.513 167.066H64.8606L53.7986 197.319C53.3134 198.572 52.9253 199.728 52.5371 200.98C64.3754 206.279 77.4752 209.17 91.3512 209.17C104.16 209.17 116.289 206.665 127.448 202.137C125.993 196.548 124.246 190.96 122.305 185.565Z" fill="#625A99"/>
<path d="M56.5146 189.708C60.8812 188.166 77.5713 186.817 70.0025 167.066H64.9567L56.5146 189.708Z" fill="#7C3992"/>
<path d="M110.467 73.0322C105.809 80.3546 97.6579 85.2682 88.2455 85.2682C78.8331 85.2682 70.6821 80.3546 66.0244 73.0322H110.467Z" fill="#FFA6BA"/>
<path d="M87.76 168.704H96.8813C99.5012 168.704 101.733 166.585 101.733 163.887C101.733 161.286 99.5983 159.07 96.8813 159.07H87.76C85.14 159.07 82.9082 161.189 82.9082 163.887C83.0052 166.488 85.14 168.704 87.76 168.704Z" fill="white"/>
<path d="M60.0077 187.492L51.8568 180.555C51.8568 180.555 50.5953 172.847 57.7759 171.209C64.9565 169.571 60.0077 187.492 60.0077 187.492Z" fill="#FF85A0"/>
<path d="M58.6507 162.345L67.0928 168.897C69.0335 170.439 70.1008 172.751 70.0038 175.16C69.7127 179.591 67.9661 186.047 60.1062 187.492C52.5375 174.292 50.3057 170.342 50.3057 170.342L58.6507 162.345Z" fill="#FFA6BA"/>
<path d="M8.09422 126.312L51.663 174.389C57.097 173.233 61.4636 170.824 63.5984 166.007L29.3449 111.378C25.7546 106.368 18.0888 105.694 12.1697 109.837C6.34758 113.883 4.50391 121.302 8.09422 126.312Z" fill="#FF4F75"/>
<path d="M134.726 46.826L125.992 29.3873C125.992 29.3873 110.758 21.9686 110.855 23.6065C110.952 25.2444 119.491 29.9654 119.491 29.9654C119.491 29.9654 112.116 39.311 115.124 43.2612C118.133 47.2114 129.098 52.7031 129.098 52.7031L134.726 46.826Z" fill="#FFA6BA"/>
<path d="M171.016 101.647L133.658 43.9355C128.224 44.0319 123.76 45.5734 121.237 50.1981L148.892 112.823C151.9 118.7 159.275 120.916 165.388 117.833C171.404 114.75 173.927 107.524 171.016 101.647Z" fill="#FF4F75"/>
</g>
<defs>
<filter id="filter0_d" x="0" y="0" width="183" height="218" filterUnits="userSpaceOnUse" color-interpolation-filters="sRGB">
<feFlood flood-opacity="0" result="BackgroundImageFix"/>
<feColorMatrix in="SourceAlpha" type="matrix" values="0 0 0 0 0 0 0 0 0 0 0 0 0 0 0 0 0 0 127 0"/>
<feOffset dy="4"/>
<feGaussianBlur stdDeviation="2"/>
<feColorMatrix type="matrix" values="0 0 0 0 0 0 0 0 0 0 0 0 0 0 0 0 0 0 0.25 0"/>
<feBlend mode="normal" in2="BackgroundImageFix" result="effect1_dropShadow"/>
<feBlend mode="normal" in="SourceGraphic" in2="effect1_dropShadow" result="shape"/>
</filter>
</defs>
</svg>
