<svg width="17" height="17" viewBox="0 0 17 17" fill="none" xmlns="http://www.w3.org/2000/svg">
<path d="M8.5 17C13.1944 17 17 13.1944 17 8.5C17 3.80558 13.1944 0 8.5 0C3.80558 0 0 3.80558 0 8.5C0 13.1944 3.80558 17 8.5 17Z" fill="#FF4F75"/>
<path d="M9.68787 11.5161C9.68787 11.836 9.55077 12.1102 9.32227 12.3387C9.09378 12.5672 8.81959 12.7043 8.4997 12.7043C8.1798 12.7043 7.90561 12.5672 7.67711 12.3387C7.44862 12.1102 7.31152 11.836 7.31152 11.5161C7.31152 11.1962 7.44862 10.922 7.67711 10.6935C7.90561 10.465 8.1798 10.3279 8.4997 10.3279C8.81959 10.3279 9.13948 10.465 9.36797 10.6935C9.55077 10.922 9.68787 11.1962 9.68787 11.5161ZM9.55077 9.77953H7.49432V4.29565H9.55077V9.77953Z" fill="white"/>
</svg>
