<svg width="30" height="28" viewBox="0 0 30 28" fill="none" xmlns="http://www.w3.org/2000/svg">
<path fill-rule="evenodd" clip-rule="evenodd" d="M25.0746 27.9872C27.6313 27.8091 29.647 25.7935 29.647 23.3333L29.647 4.66667L29.6334 4.31839C29.4448 1.90371 27.3107 0 24.7058 0L9.88227 0L9.5135 0.0128001C6.95679 0.190948 4.94109 2.20649 4.94109 4.66667V7L9.88227 7V4.66667L24.7058 4.66667L24.7058 23.3333L9.88227 23.3333V21H4.94109V23.3333L4.95464 23.6816C5.14327 26.0963 7.27737 28 9.88227 28L24.7058 28L25.0746 27.9872ZM19.7593 15.0036L19.7647 14.7505L19.7509 14.5655L19.6872 14.2394L19.6344 14.0732L19.5602 13.8944L19.4921 13.7605L19.3347 13.5162L19.2136 13.3672L19.1226 13.2707L14.7302 8.87851L14.5233 8.69582C13.6618 8.02597 12.416 8.08686 11.6243 8.87851L11.4416 9.0854C10.7717 9.9469 10.8326 11.1926 11.6243 11.9842L12.2636 12.6275L2.19619 12.6275C0.983257 12.6275 -2.09808e-05 13.6107 -2.09808e-05 14.8235C-2.09808e-05 16.0364 0.983257 17.0196 2.19619 17.0196H12.2658L11.6243 17.6628L11.4416 17.8697C10.7717 18.7312 10.8326 19.9769 11.6243 20.7686C12.482 21.6262 13.8725 21.6262 14.7302 20.7686L19.1226 16.3764L19.3347 16.1305L19.4453 15.967L19.5602 15.753L19.6567 15.509L19.7214 15.2643L19.7593 15.0036Z" fill="#FF0000"/>
</svg>
