<svg width="155" height="155" viewBox="0 0 155 155" fill="none" xmlns="http://www.w3.org/2000/svg">
<circle cx="77.5" cy="77.5" r="77.5" fill="#E8E8E8"/>
<g filter="url(#filter0_dd)">
<path d="M37 78C37 72.7471 38.0346 67.5457 40.0448 62.6927C42.055 57.8396 45.0014 53.4301 48.7157 49.7157C52.4301 46.0014 56.8396 43.055 61.6927 41.0448C66.5457 39.0346 71.7471 38 77 38C82.2529 38 87.4543 39.0346 92.3073 41.0448C97.1604 43.055 101.57 46.0014 105.284 49.7157C108.999 53.4301 111.945 57.8396 113.955 62.6927C115.965 67.5457 117 72.7471 117 78C117 88.6087 112.786 98.7828 105.284 106.284C97.7828 113.786 87.6087 118 77 118C66.3913 118 56.2172 113.786 48.7157 106.284C41.2143 98.7828 37 88.6087 37 78Z" fill="#625A99"/>
</g>
<path d="M61.3242 78L74.2972 90.973L97.8107 68.2703" stroke="white" stroke-width="10" stroke-linecap="round" stroke-linejoin="round"/>
<defs>
<filter id="filter0_dd" x="27" y="28" width="100" height="100" filterUnits="userSpaceOnUse" color-interpolation-filters="sRGB">
<feFlood flood-opacity="0" result="BackgroundImageFix"/>
<feColorMatrix in="SourceAlpha" type="matrix" values="0 0 0 0 0 0 0 0 0 0 0 0 0 0 0 0 0 0 127 0"/>
<feOffset dx="2" dy="2"/>
<feGaussianBlur stdDeviation="4"/>
<feColorMatrix type="matrix" values="0 0 0 0 0.384314 0 0 0 0 0.352941 0 0 0 0 0.6 0 0 0 0.4 0"/>
<feBlend mode="normal" in2="BackgroundImageFix" result="effect1_dropShadow"/>
<feColorMatrix in="SourceAlpha" type="matrix" values="0 0 0 0 0 0 0 0 0 0 0 0 0 0 0 0 0 0 127 0"/>
<feOffset dx="-2" dy="-2"/>
<feGaussianBlur stdDeviation="4"/>
<feColorMatrix type="matrix" values="0 0 0 0 0.384314 0 0 0 0 0.352941 0 0 0 0 0.6 0 0 0 0.4 0"/>
<feBlend mode="normal" in2="effect1_dropShadow" result="effect2_dropShadow"/>
<feBlend mode="normal" in="SourceGraphic" in2="effect2_dropShadow" result="shape"/>
</filter>
</defs>
</svg>
