<svg width="26" height="27" viewBox="0 0 26 27" fill="none" xmlns="http://www.w3.org/2000/svg">
<path d="M25.493 14.9909L22.5484 11.9739L20.9329 13.6291L23.4765 16.2352L16.9915 22.8796L4.02159 9.59087L10.5066 2.94652L12.9126 5.41174L14.5281 3.75652L11.7211 0.880435C11.0451 0.187826 9.95659 0.187826 9.29206 0.880435L2.00507 8.34652C1.32907 9.03913 1.32907 10.1543 2.00507 10.8352L15.777 24.9457C16.453 25.6383 17.5415 25.6383 18.206 24.9457L25.493 17.4796C26.169 16.787 26.169 15.6717 25.493 14.9909ZM8.55877 24.0417C4.81216 22.2339 2.1311 18.5009 1.71863 14.087H0C0.584334 21.3183 6.48496 27 13.6917 27L14.4479 26.9648L10.0826 22.4804L8.55877 24.0417ZM17.1863 10.5652H22.9151C23.5452 10.5652 24.0608 10.037 24.0608 9.3913V4.69565C24.0608 4.05 23.5452 3.52174 22.9151 3.52174V2.93478C22.9151 1.31478 21.6318 0 20.0507 0C18.4695 0 17.1863 1.31478 17.1863 2.93478V3.52174C16.5561 3.52174 16.0405 4.05 16.0405 4.69565V9.3913C16.0405 10.037 16.5561 10.5652 17.1863 10.5652ZM18.1029 2.93478C18.1029 1.8313 18.9737 0.93913 20.0507 0.93913C21.1277 0.93913 21.9985 1.8313 21.9985 2.93478V3.52174H18.1029V2.93478Z" fill="#625A99"/>
</svg>
