<svg width="30" height="34" viewBox="0 0 30 34" fill="none" xmlns="http://www.w3.org/2000/svg">
<path d="M29 22.7746V10.3301C28.9994 9.78457 28.8554 9.24874 28.5824 8.7764C28.3094 8.30406 27.9169 7.91182 27.4444 7.63903L16.5556 1.41681C16.0826 1.14375 15.5461 1 15 1C14.4539 1 13.9174 1.14375 13.4444 1.41681L2.55556 7.63903C2.08308 7.91182 1.69064 8.30406 1.41761 8.7764C1.14458 9.24874 1.00056 9.78457 1 10.3301V22.7746C1.00056 23.3202 1.14458 23.856 1.41761 24.3283C1.69064 24.8007 2.08308 25.1929 2.55556 25.4657L13.4444 31.6879C13.9174 31.961 14.4539 32.1047 15 32.1047C15.5461 32.1047 16.0826 31.961 16.5556 31.6879L27.4444 25.4657C27.9169 25.1929 28.3094 24.8007 28.5824 24.3283C28.8554 23.856 28.9994 23.3202 29 22.7746Z" stroke="#443453" stroke-width="2" stroke-linecap="round" stroke-linejoin="round"/>
<path d="M1.41846 8.71216L14.9985 16.5677L28.5785 8.71216" stroke="#443453" stroke-width="2" stroke-linecap="round" stroke-linejoin="round"/>
<path d="M14.9998 32.2322V16.5522" stroke="#443453" stroke-width="2" stroke-linecap="round" stroke-linejoin="round"/>
</svg>
