<svg width="32" height="30" viewBox="0 0 32 30" fill="none" xmlns="http://www.w3.org/2000/svg">
<path d="M16.4455 4.61539e-05C13.5394 -3.39432e-05 10.6959 0.84404 8.26055 2.42968C5.82521 4.01531 3.9029 6.27423 2.72727 8.93186L0 8.08641L2.45455 14.9046L8.19545 10.5955L5.38636 9.73641C6.32876 7.75148 7.78678 6.05595 9.60817 4.82688C11.4296 3.59782 13.5475 2.88028 15.7409 2.74921C17.9343 2.61813 20.1226 3.07832 22.0774 4.08172C24.0322 5.08513 25.6818 6.59494 26.8539 8.45351C28.0259 10.3121 28.6776 12.4512 28.7407 14.6476C28.8038 16.844 28.276 19.017 27.2126 20.9398C26.1492 22.8626 24.589 24.4647 22.695 25.5787C20.801 26.6926 18.6427 27.2777 16.4455 27.2728C13.8211 27.251 11.2716 26.395 9.16584 24.8286C7.06009 23.2621 5.50721 21.0665 4.73182 18.5591L2.12727 19.35C2.93366 22.0112 4.46386 24.3958 6.54701 26.2376C8.63016 28.0794 11.1843 29.3059 13.9241 29.7802C16.664 30.2545 19.4818 29.9578 22.0628 28.9234C24.6438 27.889 26.8866 26.1575 28.5405 23.9223C30.1945 21.6871 31.1946 19.0361 31.4292 16.2654C31.6638 13.4947 31.1236 10.7134 29.8689 8.2319C28.6143 5.75043 26.6946 3.66654 24.3242 2.21291C21.9538 0.759288 19.2261 -0.00685048 16.4455 4.61539e-05Z" fill="#7C3992"/>
<path d="M15.0818 7.82764V15.6822L21.3682 20.4004L23.0045 18.2185L17.8091 14.3185V7.82764H15.0818Z" fill="#7C3992"/>
</svg>
