<svg width="155" height="155" viewBox="0 0 155 155" fill="none" xmlns="http://www.w3.org/2000/svg">
<circle cx="77.5" cy="77.5" r="77.5" fill="#E8E8E8"/>
<g filter="url(#filter0_dd)">
<path d="M78 32L39 49.0909V74.7273C39 98.4409 55.64 120.616 78 126C100.36 120.616 117 98.4409 117 74.7273V49.0909L78 32ZM78 57.6364C84.0667 57.6364 90.1333 62.3364 90.1333 68.3182V74.7273C92.7333 74.7273 95.3333 77.2909 95.3333 80.2818V95.2364C95.3333 97.8 92.7333 100.364 89.7 100.364H65.8667C63.2667 100.364 60.6667 97.8 60.6667 94.8091V79.8545C60.6667 77.2909 63.2667 74.7273 65.8667 74.7273V68.3182C65.8667 62.3364 71.9333 57.6364 78 57.6364ZM78 62.7636C74.5333 62.7636 71.5 64.9 71.5 68.3182V74.7273H84.5V68.3182C84.5 64.9 81.4667 62.7636 78 62.7636Z" fill="#625A99"/>
</g>
<defs>
<filter id="filter0_dd" x="29" y="22" width="98" height="114" filterUnits="userSpaceOnUse" color-interpolation-filters="sRGB">
<feFlood flood-opacity="0" result="BackgroundImageFix"/>
<feColorMatrix in="SourceAlpha" type="matrix" values="0 0 0 0 0 0 0 0 0 0 0 0 0 0 0 0 0 0 127 0"/>
<feOffset dx="2" dy="2"/>
<feGaussianBlur stdDeviation="4"/>
<feColorMatrix type="matrix" values="0 0 0 0 0.384314 0 0 0 0 0.352941 0 0 0 0 0.6 0 0 0 0.3 0"/>
<feBlend mode="normal" in2="BackgroundImageFix" result="effect1_dropShadow"/>
<feColorMatrix in="SourceAlpha" type="matrix" values="0 0 0 0 0 0 0 0 0 0 0 0 0 0 0 0 0 0 127 0"/>
<feOffset dx="-2" dy="-2"/>
<feGaussianBlur stdDeviation="4"/>
<feColorMatrix type="matrix" values="0 0 0 0 0.384314 0 0 0 0 0.352941 0 0 0 0 0.6 0 0 0 0.3 0"/>
<feBlend mode="normal" in2="effect1_dropShadow" result="effect2_dropShadow"/>
<feBlend mode="normal" in="SourceGraphic" in2="effect2_dropShadow" result="shape"/>
</filter>
</defs>
</svg>
