<svg width="28" height="28" viewBox="0 0 28 28" fill="none" xmlns="http://www.w3.org/2000/svg">
<path fill-rule="evenodd" clip-rule="evenodd" d="M14.9153 0L15.1661 0.547974L15.3706 1.02291L15.7398 1.91592L16.2493 3.19061L16.3345 3.3745C16.4871 3.65912 16.7155 3.89586 16.9938 4.05856L17.2116 4.16629L18.6525 4.75861L18.8809 4.8346C19.1903 4.91437 19.5157 4.90791 19.8217 4.81594L20.0469 4.73094L21.6619 3.99844L22.5161 3.63022L23.1671 3.36843L24.5508 4.74636L24.3431 5.30901L23.9169 6.36424L23.2382 7.95793L23.1597 8.17871C23.0753 8.47808 23.0723 8.79472 23.1509 9.09566L23.2251 9.31791L23.8103 10.7438L23.9015 10.9328C24.0644 11.2245 24.3075 11.4634 24.6014 11.6212L24.8309 11.7239L26.7076 12.4225L27.4511 12.7168L28 12.9511V14.9269L27.2262 15.2758L26.4034 15.6208L24.7914 16.2687L24.6092 16.3541C24.3272 16.5066 24.0926 16.7336 23.931 17.0099L23.8239 17.226L23.2388 18.6442L23.1622 18.8736C23.0819 19.1842 23.0886 19.5111 23.1814 19.8183L23.2673 20.0443L23.9756 21.5885L24.3758 22.5012L24.6426 23.1596L23.2581 24.5417L22.9017 24.4127L22.3617 24.2044L21.375 23.8026L20.023 23.2291L19.8047 23.1547C19.509 23.0752 19.1975 23.0748 18.9015 23.1533L18.683 23.2271L17.2473 23.8196L17.0611 23.9096C16.7736 24.0703 16.5374 24.3089 16.3795 24.5974L16.2763 24.8226L15.6836 26.4117L15.3196 27.3412L15.0402 28H13.0833L12.923 27.6559L12.6275 26.9774L12.1169 25.7356L11.758 24.8302L11.6738 24.6428C11.5223 24.3527 11.2924 24.111 11.0108 23.9451L10.7904 23.8353L9.34849 23.2401L9.14893 23.1714C8.82507 23.0815 8.48222 23.0868 8.16177 23.1863L7.92627 23.2786L7.01023 23.7003L5.74 24.2605L5.24088 24.4689L4.82909 24.6316L3.44612 23.2504L3.65399 22.6912L4.08068 21.638L4.76105 20.0414L4.83991 19.82C4.9246 19.5196 4.92743 19.2019 4.84809 18.9002L4.77319 18.6773L4.18696 17.2571L4.09532 17.0681C3.93155 16.7764 3.68757 16.5379 3.39288 16.3807L3.16281 16.2785L1.58512 15.6927L0.410606 15.2275L0 15.0494V13.0717L0.343155 12.9127L1.29457 12.5049L3.19783 11.7399L3.38174 11.6547C3.66639 11.5022 3.9032 11.274 4.06599 10.9957L4.1738 10.778L4.75994 9.35362L4.83617 9.12468C4.91614 8.81462 4.90948 8.48835 4.81692 8.18182L4.7314 7.95618L4.02448 6.41077L3.52234 5.25073L3.35959 4.83964L4.74246 3.45991L5.35816 3.68715L6.27419 4.05244L7.97006 4.76728L8.1907 4.84399C8.48971 4.92605 8.80534 4.92716 9.10493 4.84722L9.3261 4.77206L10.7596 4.17557L10.9441 4.08576C11.2291 3.92571 11.4635 3.68898 11.6208 3.40296L11.7238 3.17963L12.3336 1.54841L12.689 0.644919L12.9641 0H14.9153ZM13.6678 9C11.0954 9 9 11.0942 9 13.6646C9 16.2362 11.0965 18.3333 13.6678 18.3333C16.2372 18.3333 18.3333 16.2359 18.3333 13.6646C18.3333 11.0946 16.2383 9 13.6678 9Z" fill="#666666"/>
</svg>
