<svg width="26" height="27" viewBox="0 0 26 27" fill="none" xmlns="http://www.w3.org/2000/svg">
<path d="M18.837 17.5814V15.3837L15.6 18.5233L18.837 21.6628V19.4651H26V17.5814H18.837ZM22.763 22.9186H15.6V24.8023H22.763V27L26 23.8605L22.763 20.7209V22.9186ZM9.75 5.02326C11.18 5.02326 12.35 3.89302 12.35 2.51163C12.35 1.13023 11.18 0 9.75 0C8.32 0 7.15 1.13023 7.15 2.51163C7.15 3.89302 8.32 5.02326 9.75 5.02326ZM4.875 9.29302L1.3 27H4.03L6.305 16.9535L9.1 19.4651V27H11.7V17.5186L9.035 14.9442L9.815 11.1767C11.505 13.186 14.04 14.4419 16.9 14.4419V11.9302C14.495 11.9302 12.415 10.6744 11.245 8.85349L10.01 6.84419C9.555 6.0907 8.71 5.65116 7.8 5.65116C7.475 5.65116 7.15 5.71395 6.825 5.83954L0 8.53954V14.4419H2.6V10.2349L4.875 9.29302Z" fill="#10C8F0"/>
</svg>
