<svg width="182" height="232" viewBox="0 0 182 232" fill="none" xmlns="http://www.w3.org/2000/svg">
<path d="M182 129.532C182 176.858 146.35 215.723 100.537 220.497H100.454C97.3721 220.833 94.2069 221 90.9584 221C84.8778 221 78.8806 220.414 73.1332 219.241C63.4709 217.315 54.3085 213.797 45.979 209.106C18.5748 193.359 0 163.623 0 129.532C0 80.1125 38.8989 39.9067 87.5433 38.064C88.2929 37.9802 88.9593 37.9802 89.7089 37.9802C89.7922 37.9802 89.8755 37.9802 89.9588 37.9802C90.292 37.9802 90.6252 37.9802 91.0416 37.9802C95.8728 37.9802 100.537 38.399 105.202 39.0691C106.535 39.2367 107.784 39.4879 109.033 39.7392C109.533 39.823 109.95 39.9067 110.449 40.0743C114.614 40.9957 118.696 42.1683 122.611 43.676C125.526 44.7649 128.358 46.0214 131.19 47.3616C133.189 48.3667 135.188 49.3718 137.021 50.5445C163.925 66.4593 182 95.8597 182 129.532Z" fill="#E8E8E8"/>
<g filter="url(#filter0_dd)">
<path d="M75.7499 46.5605C87.3209 36.3508 110.401 102.435 110.215 107.386C109.72 127.372 106.132 148.039 96.0456 153.917C86.764 154.041 74.9455 151.937 66.2827 149.091C65.8496 141.356 62.5701 113.697 62.6938 101.879C62.8795 90.9263 73.5223 48.5405 75.7499 46.5605Z" fill="#FD9B55"/>
<path d="M87.5067 134.302L129.088 129.599C133.296 129.104 136.328 125.33 135.833 121.122L124.385 19.7676C123.89 15.56 120.116 12.528 115.908 13.023L74.3268 17.7257C70.1192 18.2207 67.0872 21.9952 67.5822 26.2029L79.0295 127.557C79.5245 131.765 83.299 134.797 87.5067 134.302Z" fill="#333333"/>
<path d="M87.1971 131.332L128.778 126.629C132.986 126.134 136.018 122.36 135.523 118.152L124.076 16.7975C123.581 12.5899 119.806 9.55793 115.599 10.0529L74.0173 14.7556C69.8096 15.2506 66.7777 19.0251 67.2727 23.2328L78.7199 124.587C79.2149 128.795 82.9894 131.827 87.1971 131.332Z" fill="#625A99"/>
<path d="M89.6105 18.9632L96.7882 18.1588C97.2833 18.0969 97.6545 17.6019 97.6545 17.1069C97.5926 16.6119 97.0976 16.2406 96.6026 16.2406L89.4249 17.045C88.9299 17.1069 88.5586 17.6019 88.5586 18.0969C88.6205 18.6538 89.1155 19.0251 89.6105 18.9632Z" fill="#333333"/>
<path d="M100.254 16.8594C100.316 17.3544 100.811 17.7257 101.306 17.7257C101.801 17.7257 102.172 17.1688 102.172 16.6738C102.11 16.1788 101.615 15.8075 101.12 15.8075C100.563 15.8694 100.192 16.3025 100.254 16.8594Z" fill="#333333"/>
<path d="M105.891 124.312C106.043 125.634 107.213 126.6 108.535 126.448C109.857 126.295 110.823 125.126 110.671 123.803C110.518 122.481 109.348 121.515 108.026 121.668C106.653 121.82 105.738 122.99 105.891 124.312Z" fill="#333333"/>
<path d="M122.325 20L69.8496 25.9949L80.5203 119.399L132.996 113.404L122.325 20Z" fill="#625A99"/>
<path d="M118.334 20.594L73.807 25.6809C71.6122 25.9316 70.0363 27.9141 70.287 30.1089L72.7291 51.4853C72.9798 53.6801 74.9623 55.2561 77.1571 55.0053L121.684 49.9184C123.879 49.6677 125.455 47.6852 125.204 45.4904L122.762 24.114C122.512 21.9192 120.529 20.3432 118.334 20.594Z" fill="white"/>
<path d="M85.4016 63.0085C86.6369 61.4736 86.394 59.2279 84.8591 57.9926C83.3241 56.7573 81.0784 57.0002 79.8431 58.5352C78.6078 60.0701 78.8508 62.3158 80.3857 63.5511C81.9207 64.7864 84.1664 64.5435 85.4016 63.0085Z" fill="white"/>
<path d="M90.38 65.4445C89.9197 65.4445 89.5169 65.0993 89.4594 64.639C89.4018 64.1212 89.7471 63.6609 90.2649 63.6033L120.529 60.1511C121.047 60.0936 121.507 60.4388 121.565 60.9567C121.622 61.4745 121.277 61.9348 120.759 61.9923L90.495 65.4445C90.4375 65.4445 90.4375 65.4445 90.38 65.4445Z" fill="white"/>
<path d="M90.8985 70.1625C90.4382 70.1625 90.0355 69.8173 89.9779 69.357C89.9204 68.8392 90.2656 68.3789 90.7834 68.3214L121.048 64.8692C121.566 64.8116 122.026 65.1569 122.083 65.6747C122.141 66.1925 121.796 66.6528 121.278 66.7103L91.0136 70.1625C91.0136 70.1625 90.9561 70.1625 90.8985 70.1625Z" fill="white"/>
<path d="M89.8614 60.7265C89.8614 60.7265 89.8614 60.7265 89.8614 60.7265C89.4011 60.7265 88.9984 60.3813 88.9408 59.921C88.8833 59.4032 89.2285 58.9429 89.7463 58.8853L120.011 55.4331C120.528 55.3756 120.989 55.7208 121.046 56.2386C121.104 56.7565 120.759 57.2168 120.241 57.2743L89.9765 60.7265C89.9189 60.7265 89.8614 60.7265 89.8614 60.7265Z" fill="white"/>
<path d="M85.3751 109.403C84.9148 109.403 84.512 109.057 84.4545 108.597C84.397 108.079 84.7422 107.619 85.26 107.561L125.421 102.958C125.938 102.901 126.399 103.246 126.456 103.764C126.514 104.282 126.169 104.742 125.651 104.8L85.4902 109.403C85.4902 109.403 85.4326 109.403 85.3751 109.403Z" fill="white"/>
<path d="M86.0069 114.638C85.5466 114.638 85.1439 114.293 85.0863 113.833C85.0288 113.315 85.374 112.855 85.8918 112.797L126.052 108.194C126.57 108.137 127.031 108.482 127.088 109C127.146 109.518 126.8 109.978 126.283 110.035L86.122 114.638C86.0645 114.638 86.0069 114.638 86.0069 114.638Z" fill="white"/>
<path d="M117.938 72.8992L84.8431 76.68C82.6484 76.9308 81.0724 78.9133 81.3231 81.108L83.2363 97.8543C83.487 100.049 85.4695 101.625 87.6643 101.374L120.759 97.5935C122.954 97.3427 124.53 95.3603 124.279 93.1655L122.366 76.4192C122.115 74.2244 120.133 72.6485 117.938 72.8992Z" fill="white"/>
<path d="M87.3206 147.172C90.8476 147.667 100.995 131.023 94.3127 111.655C103.347 103.859 107.926 81.8922 100.81 79.0458C95.8596 77.0658 70.2426 117.781 70.4901 121.927C70.8613 129.476 87.4444 142.284 87.3206 147.172Z" fill="#FD9B55"/>
<path d="M94.3133 111.779C95.6127 114.873 96.5408 118.09 97.0358 121.37C97.5309 124.711 97.6546 128.114 96.974 131.518C96.3552 134.859 94.932 138.138 92.8901 140.861C90.8481 143.584 88.3112 145.873 85.4648 147.606C87.7543 145.192 89.8581 142.717 91.5288 139.933C93.1995 137.21 94.3133 134.178 94.8702 131.084C95.4889 127.991 95.5508 124.773 95.3652 121.555C95.1795 118.338 94.6845 115.058 94.3133 111.779Z" fill="#D37C3A"/>
<g filter="url(#filter1_d)">
<path d="M141.828 41.2034L106.001 44.9532C103.657 45.2136 101.536 43.5991 101.257 41.4117L100.03 31.2041C99.7505 29.0168 101.48 27.0377 103.824 26.7773L139.652 23.0276C141.995 22.7672 144.116 24.3817 144.395 26.569L145.623 36.8287C145.902 38.964 144.172 40.943 141.828 41.2034Z" fill="#625A99"/>
</g>
<path d="M108.858 39.0468C110.742 38.8673 111.998 37.1623 111.819 35.2779C111.639 33.3934 109.934 32.1371 108.05 32.3166C106.166 32.4961 104.91 34.201 105.089 36.0855C105.358 37.8802 107.063 39.2263 108.858 39.0468Z" fill="white"/>
<path d="M116.608 35.3303C116.317 35.3274 116.07 35.1174 116.073 34.8268C116.034 34.5358 116.245 34.2473 116.577 34.209L120.193 33.8296C120.484 33.7909 120.773 34.0014 120.811 34.3339C120.849 34.6249 120.639 34.9134 120.307 34.9516L116.691 35.3311C116.649 35.3307 116.649 35.3307 116.608 35.3303Z" fill="white"/>
<path d="M122.709 34.567C122.419 34.5641 122.172 34.3541 122.175 34.0635C122.136 33.7725 122.346 33.484 122.679 33.4457L126.295 33.0663C126.586 33.0276 126.874 33.238 126.912 33.5706C126.951 33.8616 126.741 34.1501 126.408 34.1883L122.792 34.5678C122.751 34.5674 122.751 34.5674 122.709 34.567Z" fill="white"/>
<path d="M128.994 33.7839C128.703 33.781 128.456 33.571 128.459 33.2804C128.42 32.9894 128.631 32.7009 128.963 32.6627L132.579 32.2832C132.87 32.2445 133.158 32.455 133.197 32.7875C133.235 33.0785 133.025 33.367 132.692 33.4052L129.077 33.7847C129.035 33.7843 129.035 33.7843 128.994 33.7839Z" fill="white"/>
<path d="M135.279 33.0007C134.988 32.9978 134.741 32.7878 134.744 32.4972C134.705 32.2062 134.916 31.9177 135.248 31.8795L138.864 31.5C139.155 31.4613 139.444 31.6718 139.482 32.0043C139.52 32.2953 139.31 32.5838 138.977 32.622L135.362 33.0015C135.32 33.0011 135.32 33.0011 135.279 33.0007Z" fill="white"/>
<path d="M103.434 157.849C91.615 150.114 67.6686 142.875 57.1495 148.444C56.5308 149.619 56.9639 154.26 57.6446 155.374L100.649 167.069C101.887 164.841 103.681 160.881 103.434 157.849Z" fill="#625A99"/>
<path d="M96.1699 169.015C96.6649 169.263 97.0981 169.51 97.5931 169.82C97.0981 169.51 96.6031 169.263 96.1699 169.015Z" fill="#FD0044"/>
<path d="M95.1797 168.458C95.4891 168.644 95.7985 168.829 96.1697 169.015C95.7985 168.829 95.4891 168.644 95.1797 168.458Z" fill="#E2003B"/>
<path d="M97.5938 169.819C98.3982 170.253 99.2026 170.748 100.007 171.243C99.2026 170.748 98.3982 170.253 97.5938 169.819Z" fill="#E2003B"/>
<path d="M100.006 171.243C99.8823 173.161 99.7585 175.203 99.6348 177.307C99.7585 175.203 99.8823 173.161 100.006 171.243Z" fill="#E2003B"/>
<path d="M95.8231 164.284C84.3139 158.158 72.7429 155.312 57.6449 155.312C53.3754 167.997 47.4352 185.818 41 205.494C53.0041 213.043 66.679 218.303 81.2819 220.531C87.5934 201.225 92.4198 182.352 95.8231 164.284Z" fill="#FF4F75"/>
<path d="M96.0086 213.043C96.318 210.383 96.6893 207.722 96.9986 205.123C97.308 202.524 97.6174 199.925 97.9268 197.45C98.2362 194.913 98.4837 192.5 98.7312 190.087C98.9787 187.674 99.2262 185.322 99.4737 183.033C99.7831 179.63 100.092 176.288 100.34 173.195C100.526 171.091 100.649 169.111 100.711 167.131C99.9069 166.636 99.1025 166.141 98.2981 165.707C97.803 165.46 97.3699 165.151 96.8749 164.903C96.5655 164.717 96.2561 164.532 95.8849 164.346C92.4816 182.414 87.6552 201.287 81.3438 220.531C85.7989 221.211 90.3778 221.582 94.9567 221.706C95.1423 220.159 95.328 218.612 95.5136 217.065C95.6373 215.704 95.823 214.343 96.0086 213.043Z" fill="#E8486B"/>
</g>
<defs>
<filter id="filter0_dd" x="31" y="0" width="124.652" height="231.706" filterUnits="userSpaceOnUse" color-interpolation-filters="sRGB">
<feFlood flood-opacity="0" result="BackgroundImageFix"/>
<feColorMatrix in="SourceAlpha" type="matrix" values="0 0 0 0 0 0 0 0 0 0 0 0 0 0 0 0 0 0 127 0"/>
<feOffset dx="2" dy="2"/>
<feGaussianBlur stdDeviation="4"/>
<feColorMatrix type="matrix" values="0 0 0 0 0.384314 0 0 0 0 0.352941 0 0 0 0 0.6 0 0 0 0.4 0"/>
<feBlend mode="normal" in2="BackgroundImageFix" result="effect1_dropShadow"/>
<feColorMatrix in="SourceAlpha" type="matrix" values="0 0 0 0 0 0 0 0 0 0 0 0 0 0 0 0 0 0 127 0"/>
<feOffset dx="-2" dy="-2"/>
<feGaussianBlur stdDeviation="4"/>
<feColorMatrix type="matrix" values="0 0 0 0 0.384314 0 0 0 0 0.352941 0 0 0 0 0.6 0 0 0 0.4 0"/>
<feBlend mode="normal" in2="effect1_dropShadow" result="effect2_dropShadow"/>
<feBlend mode="normal" in="SourceGraphic" in2="effect2_dropShadow" result="shape"/>
</filter>
<filter id="filter1_d" x="97" y="20" width="53.6523" height="29.9807" filterUnits="userSpaceOnUse" color-interpolation-filters="sRGB">
<feFlood flood-opacity="0" result="BackgroundImageFix"/>
<feColorMatrix in="SourceAlpha" type="matrix" values="0 0 0 0 0 0 0 0 0 0 0 0 0 0 0 0 0 0 127 0"/>
<feOffset dx="1" dy="1"/>
<feGaussianBlur stdDeviation="2"/>
<feColorMatrix type="matrix" values="0 0 0 0 0.384314 0 0 0 0 0.352941 0 0 0 0 0.6 0 0 0 0.3 0"/>
<feBlend mode="normal" in2="BackgroundImageFix" result="effect1_dropShadow"/>
<feBlend mode="normal" in="SourceGraphic" in2="effect1_dropShadow" result="shape"/>
</filter>
</defs>
</svg>
