<svg width="12" height="14" viewBox="0 0 12 14" fill="none" xmlns="http://www.w3.org/2000/svg">
<path d="M3.67468 8.62487C3.67468 8.59664 3.68062 8.57156 3.69253 8.5496L4.22812 7.52717H8.66154C9.10786 7.52717 9.49763 7.26687 9.70294 6.88111L12 2.48402L10.9586 1.88185H10.9556L10.298 3.13637L8.65858 6.27268H4.484L4.40664 6.10332L3.07067 3.13637L2.50533 1.88185L1.94296 0.627319H0V1.88185H1.19019L3.33252 6.63959L2.52616 8.17639C2.43391 8.3583 2.38036 8.56215 2.38036 8.7817C2.38036 9.47481 2.91295 10.0362 3.57055 10.0362H10.7116V8.7817H3.82344C3.74015 8.7817 3.67468 8.71269 3.67468 8.62487Z" fill="white"/>
<path d="M5.9508 5.01808H7.141V3.1363H8.92627V1.88178H7.141V0H5.9508V1.88178H4.16553V3.1363H5.9508V5.01808Z" fill="white"/>
<path d="M3.56997 10.6633C2.9124 10.6633 2.38574 11.2247 2.38574 11.9179C2.38574 12.611 2.91237 13.1724 3.56997 13.1724C4.22753 13.1724 4.76016 12.611 4.76016 11.9178C4.76016 11.2247 4.22753 10.6633 3.56997 10.6633Z" fill="white"/>
<path d="M9.50014 10.6633C8.84257 10.6633 8.31592 11.2247 8.31592 11.9179C8.31592 12.611 8.84255 13.1724 9.50014 13.1724C10.1577 13.1724 10.6903 12.611 10.6903 11.9178C10.6903 11.2247 10.1577 10.6633 9.50014 10.6633Z" fill="white"/>
</svg>
